<svg xmlns="http://www.w3.org/2000/svg" viewBox="0 0 520 160" width="520" height="160" xmlns:c2pa="http://c2pa.org/manifest"><metadata><c2pa:manifest>AAAWgmp1bWIAAAAeanVtZGMycGEAEQAQgAAAqgA4m3EDYzJwYQAAABZcanVtYgAAAEdqdW1kYzJtYQARABCAAACqADibcQN1cm46YzJwYToyMzNhNmRmMy0yMjU4LTQwN2YtODc3ZC1jMTkwMmJkNDRiZmMAAAADl2p1bWIAAAApanVtZGMyYXMAEQAQgAAAqgA4m3EDYzJwYS5hc3NlcnRpb25zAAAAALxqdW1iAAAARGp1bWRjYm9yABEAEIAAAKoAOJtxE2MycGEuaW5ncmVkaWVudC52MwAAAAAYYzJzaLwImar2pwXighp/k+xbNvAAAABwY2JvcqNpZGM6Zm9ybWF0bWltYWdlL3N2Zyt4bWxqaW5zdGFuY2VJRHgseG1wOmlpZDplZGU3MDMxNy1hMTNmLTQ3NjYtYTE5Ny02ZmUxNTM1MjRjZjFscmVsYXRpb25zaGlwaHBhcmVudE9mAAAB4mp1bWIAAABBanVtZGNib3IAEQAQgAAAqgA4m3ETYzJwYS5hY3Rpb25zLnYyAAAAABhjMnNol8HsFXZC5PwPoWJ5w2ANvQAAAZljYm9yomdhY3Rpb25zgqJmYWN0aW9ua2MycGEub3BlbmVkanBhcmFtZXRlcnOha2luZ3JlZGllbnRzgaJjdXJseC1zZWxmI2p1bWJmPWMycGEuYXNzZXJ0aW9ucy9jMnBhLmluZ3JlZGllbnQudjNkaGFzaFgg0knSWHFCnkMAFjTE0j33jwKAnVWYOz8cMX2wcC5lT0WkZmFjdGlvbngdY29tLmFudGhyb3BpYy5jbGF1ZGUucHJvdmlkZWRqcGFyYW1ldGVyc6F4H2NvbS5hbnRocm9waWMub3JpZ2luLWNvbmZpZGVuY2VndW5rbm93bmtkZXNjcmlwdGlvbnhmQ2xhdWRlIHByb3ZpZGVkIHRoaXMgZmlsZSBhdCB0aGUgcmVxdWVzdCBvZiBhIHVzZXIgYW5kIG1heSBoYXZlIGNyZWF0ZWQgb3IgbW9kaWZpZWQgdGhlIGZpbGUgY29udGVudHMubXNvZnR3YXJlQWdlbnShZG5hbWVmQ2xhdWRlcmFsbEFjdGlvbnNJbmNsdWRlZPUAAADIanVtYgAAAEBqdW1kY2JvcgARABCAAACqADibcRNjMnBhLmhhc2guZGF0YQAAAAAYYzJzaAqf9+Y5LVGnS04j8B3rJkMAAACAY2JvcqVjYWxnZnNoYTI1NmNwYWRNAAAAAAAAAAAAAAAAAGRoYXNoWCDEUSl2xs+DjimIKfpXnG1YttggfHu9WhvHXuDj78TH2GRuYW1lbmp1bWJmIG1hbmlmZXN0amV4Y2x1c2lvbnOBomVzdGFydBiWZmxlbmd0aBkeBAAAAj5qdW1iAAAAJ2p1bWRjMmNsABEAEIAAAKoAOJtxA2MycGEuY2xhaW0udjIAAAACD2Nib3KlY2FsZ2ZzaGEyNTZpc2lnbmF0dXJleE1zZWxmI2p1bWJmPS9jMnBhL3VybjpjMnBhOjIzM2E2ZGYzLTIyNTgtNDA3Zi04NzdkLWMxOTAyYmQ0NGJmYy9jMnBhLnNpZ25hdHVyZWppbnN0YW5jZUlEeCx4bXA6aWlkOmFiMTViYWQwLWRhODAtNGZiNS1hNjQyLTZkZmQyZWNhMWFhMHJjcmVhdGVkX2Fzc2VydGlvbnODomN1cmx4LXNlbGYjanVtYmY9YzJwYS5hc3NlcnRpb25zL2MycGEuaW5ncmVkaWVudC52M2RoYXNoWCDSSdJYcUKeQwAWNMTSPfePAoCdVZg7PxwxfbBwLmVPRaJjdXJseCpzZWxmI2p1bWJmPWMycGEuYXNzZXJ0aW9ucy9jMnBhLmFjdGlvbnMudjJkaGFzaFgguAaRfcEEgD10jl5ODzyle5yCt78+vbFTOcgfciXmzHqiY3VybHgpc2VsZiNqdW1iZj1jMnBhLmFzc2VydGlvbnMvYzJwYS5oYXNoLmRhdGFkaGFzaFggEuwF4Wbcpayg03o7lWaTyEC/esXDOOPiGih1ZrkrXel0Y2xhaW1fZ2VuZXJhdG9yX2luZm+jZG5hbWVvQW50aHJvcGljIEZpbGVzZ3ZlcnNpb25lMS4wLjBrc3BlY1ZlcnNpb25lMi40LjAAABA4anVtYgAAAChqdW1kYzJjcwARABCAAACqADibcQNjMnBhLnNpZ25hdHVyZQAAABAIY2JvctKEWQISogEmGCFZAgowggIGMIIBjaADAgECAhRA5aAK7sI50L64g/oGQgU9Z1UTADAKBggqhkjOPQQDAzBJMRcwFQYDVQQKEw5BbnRocm9waWMsIFBCQzEuMCwGA1UEAxMlQW50aHJvcGljIENvbnRlbnQgQ3JlZGVudGlhbHMgUm9vdCBDQTAeFw0yNjA4MDcxODQzNTZaFw0yODA4MDYxOTQzNTZaMEQxFzAVBgNVBAoTDkFudGhyb3BpYywgUEJDMSkwJwYDVQQDEyBBbnRocm9waWMgQ2xhdWRlIENvbnRlbnQgU2lnbmluZzBZMBMGByqGSM49AgEGCCqGSM49AwEHA0IABJh6CmvLUBgFFNU0vUKlOVtE6djd17L5SuwX0LemFisBM3dkd/3cyjxFA3Qo5S46fX0/ihY0VZ7mfb9KF703t5OjWDBWMA4GA1UdDwEB/wQEAwIHgDAVBgNVHSUEDjAMBgorBgEEAYPoXgIBMAwGA1UdEwEB/wQCMAAwHwYDVR0jBBgwFoAUzlHiBIFOZFsj+OPEz5o+nMHXXMIwCgYIKoZIzj0EAwMDZwAwZAIwMXMdFJ4BetLLVY7ORuE9noqbbAZOZn/aArXyTwFAZfKrPzxF2vPoJNf1+UCdg1XGAjBwX1zd9WGqYkqmL5SFqw1QySjr1zJfpJM9+1rdDwSPLMOPOjKuiXjoU/pUUeG9RwmhY3BhZFkNngAAAAAAAAAAAAAAAAAAAAAAAAAAAAAAAAAAAAAAAAAAAAAAAAAAAAAAAAAAAAAAAAAAAAAAAAAAAAAAAAAAAAAAAAAAAAAAAAAAAAAAAAAAAAAAAAAAAAAAAAAAAAAAAAAAAAAAAAAAAAAAAAAAAAAAAAAAAAAAAAAAAAAAAAAAAAAAAAAAAAAAAAAAAAAAAAAAAAAAAAAAAAAAAAAAAAAAAAAAAAAAAAAAAAAAAAAAAAAAAAAAAAAAAAAAAAAAAAAAAAAAAAAAAAAAAAAAAAAAAAAAAAAAAAAAAAAAAAAAAAAAAAAAAAAAAAAAAAAAAAAAAAAAAAAAAAAAAAAAAAAAAAAAAAAAAAAAAAAAAAAAAAAAAAAAAAAAAAAAAAAAAAAAAAAAAAAAAAAAAAAAAAAAAAAAAAAAAAAAAAAAAAAAAAAAAAAAAAAAAAAAAAAAAAAAAAAAAAAAAAAAAAAAAAAAAAAAAAAAAAAAAAAAAAAAAAAAAAAAAAAAAAAAAAAAAAAAAAAAAAAAAAAAAAAAAAAAAAAAAAAAAAAAAAAAAAAAAAAAAAAAAAAAAAAAAAAAAAAAAAAAAAAAAAAAAAAAAAAAAAAAAAAAAAAAAAAAAAAAAAAAAAAAAAAAAAAAAAAAAAAAAAAAAAAAAAAAAAAAAAAAAAAAAAAAAAAAAAAAAAAAAAAAAAAAAAAAAAAAAAAAAAAAAAAAAAAAAAAAAAAAAAAAAAAAAAAAAAAAAAAAAAAAAAAAAAAAAAAAAAAAAAAAAAAAAAAAAAAAAAAAAAAAAAAAAAAAAAAAAAAAAAAAAAAAAAAAAAAAAAAAAAAAAAAAAAAAAAAAAAAAAAAAAAAAAAAAAAAAAAAAAAAAAAAAAAAAAAAAAAAAAAAAAAAAAAAAAAAAAAAAAAAAAAAAAAAAAAAAAAAAAAAAAAAAAAAAAAAAAAAAAAAAAAAAAAAAAAAAAAAAAAAAAAAAAAAAAAAAAAAAAAAAAAAAAAAAAAAAAAAAAAAAAAAAAAAAAAAAAAAAAAAAAAAAAAAAAAAAAAAAAAAAAAAAAAAAAAAAAAAAAAAAAAAAAAAAAAAAAAAAAAAAAAAAAAAAAAAAAAAAAAAAAAAAAAAAAAAAAAAAAAAAAAAAAAAAAAAAAAAAAAAAAAAAAAAAAAAAAAAAAAAAAAAAAAAAAAAAAAAAAAAAAAAAAAAAAAAAAAAAAAAAAAAAAAAAAAAAAAAAAAAAAAAAAAAAAAAAAAAAAAAAAAAAAAAAAAAAAAAAAAAAAAAAAAAAAAAAAAAAAAAAAAAAAAAAAAAAAAAAAAAAAAAAAAAAAAAAAAAAAAAAAAAAAAAAAAAAAAAAAAAAAAAAAAAAAAAAAAAAAAAAAAAAAAAAAAAAAAAAAAAAAAAAAAAAAAAAAAAAAAAAAAAAAAAAAAAAAAAAAAAAAAAAAAAAAAAAAAAAAAAAAAAAAAAAAAAAAAAAAAAAAAAAAAAAAAAAAAAAAAAAAAAAAAAAAAAAAAAAAAAAAAAAAAAAAAAAAAAAAAAAAAAAAAAAAAAAAAAAAAAAAAAAAAAAAAAAAAAAAAAAAAAAAAAAAAAAAAAAAAAAAAAAAAAAAAAAAAAAAAAAAAAAAAAAAAAAAAAAAAAAAAAAAAAAAAAAAAAAAAAAAAAAAAAAAAAAAAAAAAAAAAAAAAAAAAAAAAAAAAAAAAAAAAAAAAAAAAAAAAAAAAAAAAAAAAAAAAAAAAAAAAAAAAAAAAAAAAAAAAAAAAAAAAAAAAAAAAAAAAAAAAAAAAAAAAAAAAAAAAAAAAAAAAAAAAAAAAAAAAAAAAAAAAAAAAAAAAAAAAAAAAAAAAAAAAAAAAAAAAAAAAAAAAAAAAAAAAAAAAAAAAAAAAAAAAAAAAAAAAAAAAAAAAAAAAAAAAAAAAAAAAAAAAAAAAAAAAAAAAAAAAAAAAAAAAAAAAAAAAAAAAAAAAAAAAAAAAAAAAAAAAAAAAAAAAAAAAAAAAAAAAAAAAAAAAAAAAAAAAAAAAAAAAAAAAAAAAAAAAAAAAAAAAAAAAAAAAAAAAAAAAAAAAAAAAAAAAAAAAAAAAAAAAAAAAAAAAAAAAAAAAAAAAAAAAAAAAAAAAAAAAAAAAAAAAAAAAAAAAAAAAAAAAAAAAAAAAAAAAAAAAAAAAAAAAAAAAAAAAAAAAAAAAAAAAAAAAAAAAAAAAAAAAAAAAAAAAAAAAAAAAAAAAAAAAAAAAAAAAAAAAAAAAAAAAAAAAAAAAAAAAAAAAAAAAAAAAAAAAAAAAAAAAAAAAAAAAAAAAAAAAAAAAAAAAAAAAAAAAAAAAAAAAAAAAAAAAAAAAAAAAAAAAAAAAAAAAAAAAAAAAAAAAAAAAAAAAAAAAAAAAAAAAAAAAAAAAAAAAAAAAAAAAAAAAAAAAAAAAAAAAAAAAAAAAAAAAAAAAAAAAAAAAAAAAAAAAAAAAAAAAAAAAAAAAAAAAAAAAAAAAAAAAAAAAAAAAAAAAAAAAAAAAAAAAAAAAAAAAAAAAAAAAAAAAAAAAAAAAAAAAAAAAAAAAAAAAAAAAAAAAAAAAAAAAAAAAAAAAAAAAAAAAAAAAAAAAAAAAAAAAAAAAAAAAAAAAAAAAAAAAAAAAAAAAAAAAAAAAAAAAAAAAAAAAAAAAAAAAAAAAAAAAAAAAAAAAAAAAAAAAAAAAAAAAAAAAAAAAAAAAAAAAAAAAAAAAAAAAAAAAAAAAAAAAAAAAAAAAAAAAAAAAAAAAAAAAAAAAAAAAAAAAAAAAAAAAAAAAAAAAAAAAAAAAAAAAAAAAAAAAAAAAAAAAAAAAAAAAAAAAAAAAAAAAAAAAAAAAAAAAAAAAAAAAAAAAAAAAAAAAAAAAAAAAAAAAAAAAAAAAAAAAAAAAAAAAAAAAAAAAAAAAAAAAAAAAAAAAAAAAAAAAAAAAAAAAAAAAAAAAAAAAAAAAAAAAAAAAAAAAAAAAAAAAAAAAAAAAAAAAAAAAAAAAAAAAAAAAAAAAAAAAAAAAAAAAAAAAAAAAAAAAAAAAAAAAAAAAAAAAAAAAAAAAAAAAAAAAAAAAAAAAAAAAAAAAAAAAAAAAAAAAAAAAAAAAAAAAAAAAAAAAAAAAAAAAAAAAAAAAAAAAAAAAAAAAAAAAAAAAAAAAAAAAAAAAAAAAAAAAAAAAAAAAAAAAAAAAAAAAAAAAAAAAAAAAAAAAAAAAAAAAAAAAAAAAAAAAAAAAAAAAAAAAAAAAAAAAAAAAAAAAAAAAAAAAAAAAAAAAAAAAAAAAAAAAAAAAAAAAAAAAAAAAAAAAAAAAAAAAAAAAAAAAAAAAAAAAAAAAAAAAAAAAAAAAAAAAAAAAAAAAAAAAAAAAAAAAAAAAAAAAAAAAAAAAAAAAAAAAAAAAAAAAAAAAAAAAAAAAAAAAAAAAAAAAAAAAAAAAAAAAAAAAAAAAAAAAAAAAAAAAAAAAAAAAAAAAAAAAAAAAAAAAAAAAAAAAAAAAAAAAAAAAAAAAAAAAAAAAAAAAAAAAAAAAAAAAAAAAAAAAAAAAAAAAAAAAAAAAAAAAAAAAAAAAAAAAAAAAAAAAAAAAAAAAAAAAAAAAAAAAAAAAAAAAAAAAAAAAAAAAAAAAAAAAAAAAAAAAAAAAAAAAAAAAAAAAAAAAAAAAAAAAAAAAAAAAAAAAAAAAAAAAAAAAAAAAAAAAAAAAAAAAAAAAAAAAAAAAAAAAAAAAAAAAAAAAAAAAAAAAAAAAAAAAAAAAAAAAAAAAAAAAAAAAAAAAAAAAAAAAAAAAAAAAAAAAAAAAAAAAAAAAAAAAAAAAAAAAAAAAAAAAAAAAAAAAAAAAAAAAAAAAAAAAAAAAAAAAAAAAAAAAAAAAAAAAAAAAAAAAAAAAAAAAAAAAAAAAAAAAAAAAAAAAAAAAAAAAAAAAAAAAAAAAAAAAAAAAAAAAAAAAAAAAAAAAAAAAAAAAAAAAAAAAAAAAAAAAAAAAAAAAAAAAAAAAAAAAAAAAAAAAAAAAAAAAAAAAAAAAAAAAAAAAAAAAAAAAAAAAAAAAAAAAAAAAAAAAAAAAAAAAAAAAAAAAAAAAAAAAAAAAAAAAAAAAAAAAAAAAAAAAAAAAAAAAAAAAAAAAAAAAAAAAAAAAAAAAAAAAAAAAAAAAAAAAAAAAAAAAAAAAAAAAAAAAAAAAAAAAAAAAAAAAAAAAAAAAAAAAAAAAAAAAAAAAAAAAAAAAAAAAAAAAAAAAAAAAAAAAAAAAAAAAAAAAAAAAAAAAAAAAAAAAAAAAAAAAAAAAAAAAAAAAAAAAAAAAAAAAAAAAAAAAAAAAAAAAAAAAAAAAAAAAAAAAAAAAAAAAAAAAAAAAAAAAAAAAAAAAAAAAAAAAAAAAAAAAAAAAAAAAAAAAAAAAAAAAAAAAAAAAAAAAAAAAAAAAAAAAAAAAAAAAAAAAAAAAAAAAAAAAAAAAAAAAAAAAAAAAAAAAAAAAAAAAAAAAAAAAAAAAAAAAAAAAAAAAAAAAAAAAAAAAAAAAAAAAAAAAAAAAAAAAAAAAAAAAAAAAAAAAAAAAAAAAAAAAAAAAAAAAAAAAAAAAAAAAAAAAAAAAAAAAAAAAAAAAAAAAAAAAAAAAAAAAAAAAAAAAAAAAAAAAAAAAAAAAAAAAAAAAAAAAAAAAAAAAAAAAAAAAAAAAAAAAAAAPZYQF/oUyeTxEh42CZoAt9sNg2ntKywjJES6b3yZ6EP3t9jK/Dce88CRO8N3eZGB+5XLYX76KgqeTmpniD7qW+jPAo=</c2pa:manifest></metadata><g opacity="0.5"><path d="M20.0 135.0 L29.2 134.5 L38.4 134.6 L47.6 134.9 L56.8 135.2 L66.0 134.6 L75.2 134.6 L84.4 134.7 L93.6 135.3 L102.8 134.6 L112.0 135.3 L121.2 135.2 L130.4 134.6 L139.6 135.0 L148.8 134.9 L158.0 134.9 L167.2 135.5 L176.4 134.6 L185.6 134.5 L194.8 135.5 L204.0 134.9 L213.2 134.7 L222.4 134.8 L231.6 134.9 L240.8 135.5 L250.0 135.0" fill="none" stroke="#1d5958" stroke-width="1.6" stroke-linecap="round" stroke-linejoin="round" opacity="1"/><path d="M244.6 137.6 L250.0 135.0 L244.6 132.4" fill="none" stroke="#1d5958" stroke-width="1.6" stroke-linecap="round" stroke-linejoin="round" opacity="1"/><path d="M20.0 135.0 L19.7 125.8 L19.7 116.5 L20.1 107.3 L20.1 98.1 L20.5 88.8 L20.4 79.6 L19.8 70.4 L19.7 61.2 L20.4 51.9 L20.5 42.7 L19.5 33.5 L20.3 24.2 L20.0 15.0" fill="none" stroke="#1d5958" stroke-width="1.6" stroke-linecap="round" stroke-linejoin="round" opacity="1"/><path d="M22.6 20.4 L20.0 15.0 L17.4 20.4" fill="none" stroke="#1d5958" stroke-width="1.6" stroke-linecap="round" stroke-linejoin="round" opacity="1"/><text x="246.0" y="153.0" font-family="Georgia,'Iowan Old Style','Times New Roman',serif" font-size="13" font-style="italic" font-weight="normal" fill="#1d5958" text-anchor="middle" opacity="1">V (mL)</text><text x="14.0" y="9.0" font-family="Georgia,'Iowan Old Style','Times New Roman',serif" font-size="13" font-style="italic" font-weight="normal" fill="#1d5958" text-anchor="middle" opacity="1">pH</text><path d="M28.0 108.6 L33.2 108.6 L38.5 108.6 L43.8 108.6 L49.0 108.6 L54.2 108.6 L59.5 108.6 L64.8 108.6 L70.0 108.6 L75.2 108.5 L80.5 108.5 L85.8 108.4 L91.0 108.3 L96.2 108.1 L101.5 107.7 L106.8 107.1 L112.0 106.0 L117.2 104.3 L122.5 101.4 L127.8 97.0 L133.0 90.6 L138.2 82.3 L143.5 72.6 L148.8 62.9 L154.0 54.6 L159.2 48.2 L164.5 43.8 L169.8 40.9 L175.0 39.2 L180.2 38.1 L185.5 37.5 L190.8 37.1 L196.0 36.9 L201.2 36.8 L206.5 36.7 L211.8 36.7 L217.0 36.6 L222.2 36.6 L227.5 36.6 L232.8 36.6 L238.0 36.6" fill="none" stroke="#1d5958" stroke-width="1.6" stroke-linecap="round" stroke-linejoin="round" opacity="1"/><path d="M143.5 135.0 L143.7 125.6 L143.2 116.1 L143.8 106.7 L143.8 97.3 L143.2 87.9 L143.7 78.4 L143.5 69.0" fill="none" stroke="#1d5958" stroke-width="1.1199999999999999" stroke-linecap="round" stroke-linejoin="round" opacity="1" stroke-dasharray="3 4"/><text x="147.5" y="153.0" font-family="Georgia,'Iowan Old Style','Times New Roman',serif" font-size="11" font-style="italic" font-weight="normal" fill="#1d5958" text-anchor="middle" opacity="1">V eq</text><path d="M290.0 120.0 L292.3 120.0 L294.7 120.0 L297.0 120.0 L299.3 120.0 L301.7 120.0 L304.0 120.0 L306.3 120.0 L308.7 120.0 L311.0 120.0 L313.3 120.0 L315.7 120.0 L318.0 119.9 L320.3 119.5 L322.7 116.9 L325.0 107.8 L325.7 97.5 L327.3 87.3 L328.3 74.1 L329.7 60.9 L332.0 48.0 L334.3 60.9 L335.7 74.1 L336.7 87.3 L337.9 97.6 L339.0 107.8 L341.3 116.9 L343.7 119.5 L346.0 119.9 L348.3 120.0 L350.7 120.0 L353.0 120.0 L355.3 120.0 L357.7 120.0 L360.0 120.0 L362.3 119.9 L364.7 119.6 L367.0 118.3 L369.3 114.5 L371.7 106.4 L374.0 94.4 L376.3 83.4 L378.7 80.2 L381.0 87.2 L383.3 99.4 L385.7 110.2 L388.0 116.4 L390.3 119.0 L392.7 119.8 L395.0 120.0 L397.3 120.0 L399.7 120.0 L402.0 120.0 L404.3 120.0 L406.7 120.0 L409.0 120.0 L411.3 119.9 L413.7 118.8 L416.0 111.6 L417.3 99.4 L418.3 87.2 L419.3 78.2 L420.0 69.3 L420.6 60.3 L420.7 51.2 L423.0 42.2 L423.2 52.3 L424.2 62.4 L425.3 72.5 L426.3 83.1 L427.2 93.7 L427.7 104.4 L430.0 117.2 L432.3 119.7 L434.7 120.0 L437.0 120.0 L439.3 120.0 L441.7 119.9 L444.0 119.7 L446.3 119.2 L448.7 117.9 L451.0 115.3 L453.3 110.8 L455.7 104.7 L458.0 98.2 L460.3 93.3 L462.7 92.1 L465.0 94.9 L467.3 100.7 L469.7 107.3 L472.0 112.8 L474.3 116.5 L476.7 118.6 L479.0 119.5 L481.3 119.8 L483.7 120.0 L486.0 120.0 L488.3 120.0 L490.7 120.0 L493.0 120.0 L495.3 120.0 L497.7 120.0 L500.0 120.0" fill="none" stroke="#1d5958" stroke-width="1.6" stroke-linecap="round" stroke-linejoin="round" opacity="1"/><path d="M290.0 120.0 L299.1 120.1 L308.3 120.2 L317.4 119.6 L326.5 119.7 L335.7 120.5 L344.8 120.1 L353.9 120.2 L363.0 119.6 L372.2 119.9 L381.3 120.5 L390.4 120.2 L399.6 120.5 L408.7 119.7 L417.8 120.0 L427.0 120.3 L436.1 119.9 L445.2 120.3 L454.3 120.1 L463.5 119.6 L472.6 119.6 L481.7 120.5 L490.9 119.6 L500.0 120.0" fill="none" stroke="#1d5958" stroke-width="1.1199999999999999" stroke-linecap="round" stroke-linejoin="round" opacity="1"/><path d="M290.0 120.0 L299.1 119.7 L308.3 120.4 L317.4 120.7 L326.5 120.0 L335.7 120.0 L344.8 120.6 L353.9 119.6 L363.0 119.7 L372.2 120.2 L381.3 120.3 L390.4 119.1 L399.6 119.2 L408.7 119.3 L417.8 120.5 L427.0 120.4 L436.1 120.9 L445.2 120.5 L454.3 119.5 L463.5 120.5 L472.6 121.0 L481.7 119.7 L490.9 119.0 L500.0 120.0" fill="none" stroke="#1d5958" stroke-width="0.616" stroke-linecap="round" stroke-linejoin="round" opacity="0.45"/><text x="494.0" y="136.0" font-family="Georgia,'Iowan Old Style','Times New Roman',serif" font-size="11" font-style="italic" font-weight="normal" fill="#1d5958" text-anchor="middle" opacity="1">t (min)</text></g></svg>