<svg xmlns="http://www.w3.org/2000/svg" viewBox="0 0 520 440" width="520" height="440" xmlns:c2pa="http://c2pa.org/manifest"><metadata><c2pa:manifest>AAAWgmp1bWIAAAAeanVtZGMycGEAEQAQgAAAqgA4m3EDYzJwYQAAABZcanVtYgAAAEdqdW1kYzJtYQARABCAAACqADibcQN1cm46YzJwYTowZDU0YmRjNi1hMGI3LTRlYTEtYWM0YS1hZTQzY2YzYTBmZjMAAAADl2p1bWIAAAApanVtZGMyYXMAEQAQgAAAqgA4m3EDYzJwYS5hc3NlcnRpb25zAAAAALxqdW1iAAAARGp1bWRjYm9yABEAEIAAAKoAOJtxE2MycGEuaW5ncmVkaWVudC52MwAAAAAYYzJzaBS/x6IJCO0ioBprDBGQyJwAAABwY2JvcqNpZGM6Zm9ybWF0bWltYWdlL3N2Zyt4bWxqaW5zdGFuY2VJRHgseG1wOmlpZDpkY2RjYjczYi1iNDRkLTQ3ZGQtOTk5NS04ZDdmYTE3MGQ0YzRscmVsYXRpb25zaGlwaHBhcmVudE9mAAAB4mp1bWIAAABBanVtZGNib3IAEQAQgAAAqgA4m3ETYzJwYS5hY3Rpb25zLnYyAAAAABhjMnNo3sVk7TlK3ibwQCGm3zvbqQAAAZljYm9yomdhY3Rpb25zgqJmYWN0aW9ua2MycGEub3BlbmVkanBhcmFtZXRlcnOha2luZ3JlZGllbnRzgaJjdXJseC1zZWxmI2p1bWJmPWMycGEuYXNzZXJ0aW9ucy9jMnBhLmluZ3JlZGllbnQudjNkaGFzaFggpvhMm+ggqI3I2MtnDyC1NJEw9Ys8FT1sXdgl2vk9RC+kZmFjdGlvbngdY29tLmFudGhyb3BpYy5jbGF1ZGUucHJvdmlkZWRqcGFyYW1ldGVyc6F4H2NvbS5hbnRocm9waWMub3JpZ2luLWNvbmZpZGVuY2VndW5rbm93bmtkZXNjcmlwdGlvbnhmQ2xhdWRlIHByb3ZpZGVkIHRoaXMgZmlsZSBhdCB0aGUgcmVxdWVzdCBvZiBhIHVzZXIgYW5kIG1heSBoYXZlIGNyZWF0ZWQgb3IgbW9kaWZpZWQgdGhlIGZpbGUgY29udGVudHMubXNvZnR3YXJlQWdlbnShZG5hbWVmQ2xhdWRlcmFsbEFjdGlvbnNJbmNsdWRlZPUAAADIanVtYgAAAEBqdW1kY2JvcgARABCAAACqADibcRNjMnBhLmhhc2guZGF0YQAAAAAYYzJzaK5SK1OBk8BcGuFxL94DGeIAAACAY2JvcqVjYWxnZnNoYTI1NmNwYWRNAAAAAAAAAAAAAAAAAGRoYXNoWCAh8wo9Vdm2S3itChk0dzcXVSK+T9WUXVdl+rHEzYXU92RuYW1lbmp1bWJmIG1hbmlmZXN0amV4Y2x1c2lvbnOBomVzdGFydBiWZmxlbmd0aBkeBAAAAj5qdW1iAAAAJ2p1bWRjMmNsABEAEIAAAKoAOJtxA2MycGEuY2xhaW0udjIAAAACD2Nib3KlY2FsZ2ZzaGEyNTZpc2lnbmF0dXJleE1zZWxmI2p1bWJmPS9jMnBhL3VybjpjMnBhOjBkNTRiZGM2LWEwYjctNGVhMS1hYzRhLWFlNDNjZjNhMGZmMy9jMnBhLnNpZ25hdHVyZWppbnN0YW5jZUlEeCx4bXA6aWlkOjJkZjViN2I2LWI5NWEtNDI3Yi1iMjk1LWYyMWQ4ZTdhMjZiN3JjcmVhdGVkX2Fzc2VydGlvbnODomN1cmx4LXNlbGYjanVtYmY9YzJwYS5hc3NlcnRpb25zL2MycGEuaW5ncmVkaWVudC52M2RoYXNoWCCm+Eyb6CCojcjYy2cPILU0kTD1izwVPWxd2CXa+T1EL6JjdXJseCpzZWxmI2p1bWJmPWMycGEuYXNzZXJ0aW9ucy9jMnBhLmFjdGlvbnMudjJkaGFzaFggE2ktgmFqr0WDEIqzvQr4bD31cU9fMuFyN6zYIfa5A0WiY3VybHgpc2VsZiNqdW1iZj1jMnBhLmFzc2VydGlvbnMvYzJwYS5oYXNoLmRhdGFkaGFzaFggK/nKE3dO9if+fg8zSceSnZDsk6NxNtGJh496sS+Nx4p0Y2xhaW1fZ2VuZXJhdG9yX2luZm+jZG5hbWVvQW50aHJvcGljIEZpbGVzZ3ZlcnNpb25lMS4wLjBrc3BlY1ZlcnNpb25lMi40LjAAABA4anVtYgAAAChqdW1kYzJjcwARABCAAACqADibcQNjMnBhLnNpZ25hdHVyZQAAABAIY2JvctKEWQISogEmGCFZAgowggIGMIIBjaADAgECAhRA5aAK7sI50L64g/oGQgU9Z1UTADAKBggqhkjOPQQDAzBJMRcwFQYDVQQKEw5BbnRocm9waWMsIFBCQzEuMCwGA1UEAxMlQW50aHJvcGljIENvbnRlbnQgQ3JlZGVudGlhbHMgUm9vdCBDQTAeFw0yNjA4MDcxODQzNTZaFw0yODA4MDYxOTQzNTZaMEQxFzAVBgNVBAoTDkFudGhyb3BpYywgUEJDMSkwJwYDVQQDEyBBbnRocm9waWMgQ2xhdWRlIENvbnRlbnQgU2lnbmluZzBZMBMGByqGSM49AgEGCCqGSM49AwEHA0IABJh6CmvLUBgFFNU0vUKlOVtE6djd17L5SuwX0LemFisBM3dkd/3cyjxFA3Qo5S46fX0/ihY0VZ7mfb9KF703t5OjWDBWMA4GA1UdDwEB/wQEAwIHgDAVBgNVHSUEDjAMBgorBgEEAYPoXgIBMAwGA1UdEwEB/wQCMAAwHwYDVR0jBBgwFoAUzlHiBIFOZFsj+OPEz5o+nMHXXMIwCgYIKoZIzj0EAwMDZwAwZAIwMXMdFJ4BetLLVY7ORuE9noqbbAZOZn/aArXyTwFAZfKrPzxF2vPoJNf1+UCdg1XGAjBwX1zd9WGqYkqmL5SFqw1QySjr1zJfpJM9+1rdDwSPLMOPOjKuiXjoU/pUUeG9RwmhY3BhZFkNngAAAAAAAAAAAAAAAAAAAAAAAAAAAAAAAAAAAAAAAAAAAAAAAAAAAAAAAAAAAAAAAAAAAAAAAAAAAAAAAAAAAAAAAAAAAAAAAAAAAAAAAAAAAAAAAAAAAAAAAAAAAAAAAAAAAAAAAAAAAAAAAAAAAAAAAAAAAAAAAAAAAAAAAAAAAAAAAAAAAAAAAAAAAAAAAAAAAAAAAAAAAAAAAAAAAAAAAAAAAAAAAAAAAAAAAAAAAAAAAAAAAAAAAAAAAAAAAAAAAAAAAAAAAAAAAAAAAAAAAAAAAAAAAAAAAAAAAAAAAAAAAAAAAAAAAAAAAAAAAAAAAAAAAAAAAAAAAAAAAAAAAAAAAAAAAAAAAAAAAAAAAAAAAAAAAAAAAAAAAAAAAAAAAAAAAAAAAAAAAAAAAAAAAAAAAAAAAAAAAAAAAAAAAAAAAAAAAAAAAAAAAAAAAAAAAAAAAAAAAAAAAAAAAAAAAAAAAAAAAAAAAAAAAAAAAAAAAAAAAAAAAAAAAAAAAAAAAAAAAAAAAAAAAAAAAAAAAAAAAAAAAAAAAAAAAAAAAAAAAAAAAAAAAAAAAAAAAAAAAAAAAAAAAAAAAAAAAAAAAAAAAAAAAAAAAAAAAAAAAAAAAAAAAAAAAAAAAAAAAAAAAAAAAAAAAAAAAAAAAAAAAAAAAAAAAAAAAAAAAAAAAAAAAAAAAAAAAAAAAAAAAAAAAAAAAAAAAAAAAAAAAAAAAAAAAAAAAAAAAAAAAAAAAAAAAAAAAAAAAAAAAAAAAAAAAAAAAAAAAAAAAAAAAAAAAAAAAAAAAAAAAAAAAAAAAAAAAAAAAAAAAAAAAAAAAAAAAAAAAAAAAAAAAAAAAAAAAAAAAAAAAAAAAAAAAAAAAAAAAAAAAAAAAAAAAAAAAAAAAAAAAAAAAAAAAAAAAAAAAAAAAAAAAAAAAAAAAAAAAAAAAAAAAAAAAAAAAAAAAAAAAAAAAAAAAAAAAAAAAAAAAAAAAAAAAAAAAAAAAAAAAAAAAAAAAAAAAAAAAAAAAAAAAAAAAAAAAAAAAAAAAAAAAAAAAAAAAAAAAAAAAAAAAAAAAAAAAAAAAAAAAAAAAAAAAAAAAAAAAAAAAAAAAAAAAAAAAAAAAAAAAAAAAAAAAAAAAAAAAAAAAAAAAAAAAAAAAAAAAAAAAAAAAAAAAAAAAAAAAAAAAAAAAAAAAAAAAAAAAAAAAAAAAAAAAAAAAAAAAAAAAAAAAAAAAAAAAAAAAAAAAAAAAAAAAAAAAAAAAAAAAAAAAAAAAAAAAAAAAAAAAAAAAAAAAAAAAAAAAAAAAAAAAAAAAAAAAAAAAAAAAAAAAAAAAAAAAAAAAAAAAAAAAAAAAAAAAAAAAAAAAAAAAAAAAAAAAAAAAAAAAAAAAAAAAAAAAAAAAAAAAAAAAAAAAAAAAAAAAAAAAAAAAAAAAAAAAAAAAAAAAAAAAAAAAAAAAAAAAAAAAAAAAAAAAAAAAAAAAAAAAAAAAAAAAAAAAAAAAAAAAAAAAAAAAAAAAAAAAAAAAAAAAAAAAAAAAAAAAAAAAAAAAAAAAAAAAAAAAAAAAAAAAAAAAAAAAAAAAAAAAAAAAAAAAAAAAAAAAAAAAAAAAAAAAAAAAAAAAAAAAAAAAAAAAAAAAAAAAAAAAAAAAAAAAAAAAAAAAAAAAAAAAAAAAAAAAAAAAAAAAAAAAAAAAAAAAAAAAAAAAAAAAAAAAAAAAAAAAAAAAAAAAAAAAAAAAAAAAAAAAAAAAAAAAAAAAAAAAAAAAAAAAAAAAAAAAAAAAAAAAAAAAAAAAAAAAAAAAAAAAAAAAAAAAAAAAAAAAAAAAAAAAAAAAAAAAAAAAAAAAAAAAAAAAAAAAAAAAAAAAAAAAAAAAAAAAAAAAAAAAAAAAAAAAAAAAAAAAAAAAAAAAAAAAAAAAAAAAAAAAAAAAAAAAAAAAAAAAAAAAAAAAAAAAAAAAAAAAAAAAAAAAAAAAAAAAAAAAAAAAAAAAAAAAAAAAAAAAAAAAAAAAAAAAAAAAAAAAAAAAAAAAAAAAAAAAAAAAAAAAAAAAAAAAAAAAAAAAAAAAAAAAAAAAAAAAAAAAAAAAAAAAAAAAAAAAAAAAAAAAAAAAAAAAAAAAAAAAAAAAAAAAAAAAAAAAAAAAAAAAAAAAAAAAAAAAAAAAAAAAAAAAAAAAAAAAAAAAAAAAAAAAAAAAAAAAAAAAAAAAAAAAAAAAAAAAAAAAAAAAAAAAAAAAAAAAAAAAAAAAAAAAAAAAAAAAAAAAAAAAAAAAAAAAAAAAAAAAAAAAAAAAAAAAAAAAAAAAAAAAAAAAAAAAAAAAAAAAAAAAAAAAAAAAAAAAAAAAAAAAAAAAAAAAAAAAAAAAAAAAAAAAAAAAAAAAAAAAAAAAAAAAAAAAAAAAAAAAAAAAAAAAAAAAAAAAAAAAAAAAAAAAAAAAAAAAAAAAAAAAAAAAAAAAAAAAAAAAAAAAAAAAAAAAAAAAAAAAAAAAAAAAAAAAAAAAAAAAAAAAAAAAAAAAAAAAAAAAAAAAAAAAAAAAAAAAAAAAAAAAAAAAAAAAAAAAAAAAAAAAAAAAAAAAAAAAAAAAAAAAAAAAAAAAAAAAAAAAAAAAAAAAAAAAAAAAAAAAAAAAAAAAAAAAAAAAAAAAAAAAAAAAAAAAAAAAAAAAAAAAAAAAAAAAAAAAAAAAAAAAAAAAAAAAAAAAAAAAAAAAAAAAAAAAAAAAAAAAAAAAAAAAAAAAAAAAAAAAAAAAAAAAAAAAAAAAAAAAAAAAAAAAAAAAAAAAAAAAAAAAAAAAAAAAAAAAAAAAAAAAAAAAAAAAAAAAAAAAAAAAAAAAAAAAAAAAAAAAAAAAAAAAAAAAAAAAAAAAAAAAAAAAAAAAAAAAAAAAAAAAAAAAAAAAAAAAAAAAAAAAAAAAAAAAAAAAAAAAAAAAAAAAAAAAAAAAAAAAAAAAAAAAAAAAAAAAAAAAAAAAAAAAAAAAAAAAAAAAAAAAAAAAAAAAAAAAAAAAAAAAAAAAAAAAAAAAAAAAAAAAAAAAAAAAAAAAAAAAAAAAAAAAAAAAAAAAAAAAAAAAAAAAAAAAAAAAAAAAAAAAAAAAAAAAAAAAAAAAAAAAAAAAAAAAAAAAAAAAAAAAAAAAAAAAAAAAAAAAAAAAAAAAAAAAAAAAAAAAAAAAAAAAAAAAAAAAAAAAAAAAAAAAAAAAAAAAAAAAAAAAAAAAAAAAAAAAAAAAAAAAAAAAAAAAAAAAAAAAAAAAAAAAAAAAAAAAAAAAAAAAAAAAAAAAAAAAAAAAAAAAAAAAAAAAAAAAAAAAAAAAAAAAAAAAAAAAAAAAAAAAAAAAAAAAAAAAAAAAAAAAAAAAAAAAAAAAAAAAAAAAAAAAAAAAAAAAAAAAAAAAAAAAAAAAAAAAAAAAAAAAAAAAAAAAAAAAAAAAAAAAAAAAAAAAAAAAAAAAAAAAAAAAAAAAAAAAAAAAAAAAAAAAAAAAAAAAAAAAAAAAAAAAAAAAAAAAAAAAAAAAAAAAAAAAAAAAAAAAAAAAAAAAAAAAAAAAAAAAAAAAAAAAAAAAAAAAAAAAAAAAAAAAAAAAAAAAAAAAAAAAAAAAAAAAAAAAAAAAAAAAAAAAAAAAAAAAAAAAAAAAAAAAAAAAAAAAAAAAAAAAAAAAAAAAAAAAAAAAAAAAAAAAAAAAAAAAAAAAAAAAAAAAAAAAAAAAAAAAAAAAAAAAAAAAAAAAAAAAAAAAAAAAAAAAAAAAAAAAAAAAAAAAAAAAAAAAAAAAAAAAAAAAAAAAAAAAAAAAAAAAAAAAAAAAAAAAAAAAAAAAAAAAAAAAAAAAAAAAAAAAAAAAAAAAAAAAAAAAAAAAAAAAAAAAAAAAAAAAAAAAAAAAAAAAAAAAAAAAAAAAAAAAAAAAAAAAAAAAAAAAAAAAAAAAAAAAAAAAAAAAAAAAAAAAAAAAAAAAAAAAAAAAAAAAAAAAAAAAAAAAAAAAAAAAAAAAAAAAAAAAAAAAAAAAAAAAAAAAAAAAAAAAAAAAAAAAAAAAAAAAAAAAAAAAAAAAAAAAAAAAAAAAAAAAAAAAAAAAAAAAAAAAAAAAAAAAAAAAAAAAAAAAAAAAAAAAAAAAAAAAAAAAAAAAAAAAAAAAAAAAAAAAAAAAAAAAAAAAAAAAAAAAAAAAAAAAAAAAAAAAAAAAAAAAAAAAAAAAAAAAAAAAAAAAAAAAAAAAAAAAAAAAAAAAAAAAAAAAAAAAAAAAAAAAAAAAAAAAAAAAAAAAAAAAAAAAAAAAAAAAAAAAAAAAAAAAAAAAAAAAAAAAAAAAAAAAAAAAAAAAAAAAAAAAAAAAAAAAAAAAAAAAAAAAAAAAAAAAAAAAAAAAAAAAAAAAAAAAAAAAAAAAAAAAAAAAAAAAAAAAAAAAAAAAAAAAAAAAAAAAAAAAAAAAAAAAAAAAAAAAAAAAAAAAAAAAAAAAAAAAAAAAAAAAAAAAAAAAAAAAAAAAAAAAAAAAAAAAAAAAAAAAAAAAAAAAAAAAAAAAAAAAAAAAAAAAAAAAAAAAAAAAAAAAAAAAAAAAAAAAAAAAAAAAAAAAAAAAAAAAAAAAAAAAAAAAAAAAAAAAAAAAAAAAAAAAAAAAAAAAAAAAAAAAAAAAAAAAAAAAAAAAAAAAAAAAAAAAAAAAAAAAPZYQOgIGG0uz9THxLlEv2E5DETPQkfs5bf9mFPDrGjRqnqAsfECTcnj6+/vUWGZD8J4aoRv0vLb6jypPmXDX2dsm9c=</c2pa:manifest></metadata><g opacity="0.5"><path d="M100.0 180.0 L99.8 189.2 L100.5 198.3 L100.2 207.5 L100.3 216.7 L99.7 225.8 L99.8 235.0 L99.6 244.2 L100.5 253.3 L100.1 262.5 L100.5 271.7 L100.3 280.8 L100.0 290.0 L110.0 290.0 L120.0 289.5 L130.0 289.7 L140.0 290.2 L150.0 290.0 L160.0 289.7 L170.0 290.1 L180.0 290.0 L180.3 280.8 L179.5 271.7 L180.3 262.5 L180.2 253.3 L179.8 244.2 L179.6 235.0 L180.5 225.8 L179.8 216.7 L179.6 207.5 L179.6 198.3 L180.4 189.2 L180.0 180.0" fill="none" stroke="#2c4a82" stroke-width="2.04" stroke-linecap="round" stroke-linejoin="round" opacity="1"/><path d="M102.0 210.0 L111.5 210.3 L121.0 210.3 L130.5 210.0 L140.0 210.5 L149.5 209.9 L159.0 210.1 L168.5 210.4 L178.0 210.0" fill="none" stroke="#2c4a82" stroke-width="3.4" stroke-linecap="round" stroke-linejoin="round" opacity="1"/><path d="M140.0 210.0 L140.4 200.0 L140.1 190.0 L140.2 180.0 L139.5 170.0 L139.7 160.0 L140.0 150.0" fill="none" stroke="#2c4a82" stroke-width="2.38" stroke-linecap="round" stroke-linejoin="round" opacity="1"/><path d="M140.0 210.0 L139.2 200.0 L139.5 190.0 L139.2 180.0 L139.6 170.0 L140.3 160.0 L140.0 150.0" fill="none" stroke="#2c4a82" stroke-width="1.309" stroke-linecap="round" stroke-linejoin="round" opacity="0.45"/><path d="M126.0 150.0 L135.3 149.9 L144.7 149.9 L154.0 150.0" fill="none" stroke="#2c4a82" stroke-width="2.38" stroke-linecap="round" stroke-linejoin="round" opacity="1"/><path d="M126.0 150.0 L135.3 149.5 L144.7 150.9 L154.0 150.0" fill="none" stroke="#2c4a82" stroke-width="1.309" stroke-linecap="round" stroke-linejoin="round" opacity="0.45"/><path d="M127.5 226.8 L128.8 226.2 L130.2 226.3 L131.5 226.9 L132.4 228.1 L132.6 229.5 L132.3 230.8 L131.3 231.9 L130.0 232.5 L128.6 232.4 L127.4 231.8 L126.5 230.7 L126.2 229.3 L126.6 227.9 L127.5 226.8" fill="none" stroke="#2c4a82" stroke-width="1.19" stroke-linecap="round" stroke-linejoin="round" opacity="1"/><path d="M126.5 225.3 L121.8 218.8" fill="none" stroke="#2c4a82" stroke-width="0.85" stroke-linecap="round" stroke-linejoin="round" opacity="1"/><path d="M115.9 256.0 L114.5 256.4 L113.1 256.2 L111.9 255.3 L111.3 254.1 L111.2 252.7 L111.8 251.3 L112.8 250.4 L114.2 250.0 L115.6 250.3 L116.8 251.1 L117.4 252.4 L117.5 253.8 L116.9 255.1 L115.9 256.0" fill="none" stroke="#2c4a82" stroke-width="1.19" stroke-linecap="round" stroke-linejoin="round" opacity="1"/><path d="M111.0 257.0 L105.7 262.9" fill="none" stroke="#2c4a82" stroke-width="0.85" stroke-linecap="round" stroke-linejoin="round" opacity="1"/><path d="M115.1 254.2 L113.8 254.6 L112.4 254.5 L111.2 253.7 L110.4 252.5 L110.3 251.1 L110.8 249.7 L111.8 248.7 L113.2 248.3 L114.6 248.5 L115.8 249.2 L116.5 250.5 L116.7 251.9 L116.2 253.2 L115.1 254.2" fill="none" stroke="#2c4a82" stroke-width="1.19" stroke-linecap="round" stroke-linejoin="round" opacity="1"/><path d="M115.1 254.2 L113.8 254.6 L112.4 254.5 L111.2 253.7 L110.4 252.5 L110.3 251.1 L110.8 249.7 L111.8 248.7 L113.2 248.3 L114.6 248.5 L115.8 249.2 L116.5 250.5 L116.7 251.9 L116.2 253.2 L115.1 254.2" fill="none" stroke="#2c4a82" stroke-width="0.6545" stroke-linecap="round" stroke-linejoin="round" opacity="0.45"/><path d="M118.3 252.6 L126.1 254.5" fill="none" stroke="#2c4a82" stroke-width="0.85" stroke-linecap="round" stroke-linejoin="round" opacity="1"/><path d="M139.2 224.1 L139.0 225.5 L138.2 226.7 L136.9 227.4 L135.5 227.5 L134.2 227.0 L133.2 225.9 L132.8 224.6 L133.0 223.1 L133.9 222.0 L135.1 221.3 L136.5 221.2 L137.8 221.7 L138.8 222.7 L139.2 224.1" fill="none" stroke="#2c4a82" stroke-width="1.19" stroke-linecap="round" stroke-linejoin="round" opacity="1"/><path d="M140.2 227.0 L147.0 231.3" fill="none" stroke="#2c4a82" stroke-width="0.85" stroke-linecap="round" stroke-linejoin="round" opacity="1"/><path d="M132.5 270.1 L133.3 269.0 L134.5 268.2 L135.9 268.1 L137.2 268.6 L138.2 269.6 L138.7 271.0 L138.5 272.4 L137.7 273.6 L136.5 274.3 L135.1 274.4 L133.7 273.9 L132.7 272.9 L132.3 271.6 L132.5 270.1" fill="none" stroke="#2c4a82" stroke-width="1.19" stroke-linecap="round" stroke-linejoin="round" opacity="1"/><path d="M139.0 274.8 L144.7 280.4" fill="none" stroke="#2c4a82" stroke-width="0.85" stroke-linecap="round" stroke-linejoin="round" opacity="1"/><path d="M125.1 256.2 L126.1 257.3 L126.6 258.6 L126.4 260.0 L125.6 261.2 L124.4 261.9 L123.0 262.1 L121.6 261.6 L120.7 260.5 L120.2 259.2 L120.4 257.8 L121.2 256.6 L122.4 255.9 L123.8 255.7 L125.1 256.2" fill="none" stroke="#2c4a82" stroke-width="1.19" stroke-linecap="round" stroke-linejoin="round" opacity="1"/><path d="M128.1 257.3 L135.7 254.7" fill="none" stroke="#2c4a82" stroke-width="0.85" stroke-linecap="round" stroke-linejoin="round" opacity="1"/><path d="M145.0 247.8 L143.6 247.6 L142.4 246.9 L141.6 245.7 L141.4 244.3 L141.9 242.9 L142.9 241.9 L144.2 241.4 L145.6 241.6 L146.8 242.3 L147.6 243.5 L147.8 244.9 L147.4 246.2 L146.4 247.3 L145.0 247.8" fill="none" stroke="#2c4a82" stroke-width="1.19" stroke-linecap="round" stroke-linejoin="round" opacity="1"/><path d="M145.0 247.8 L143.6 247.6 L142.4 246.9 L141.6 245.7 L141.4 244.3 L141.9 242.9 L142.9 241.9 L144.2 241.4 L145.6 241.6 L146.8 242.3 L147.6 243.5 L147.8 244.9 L147.4 246.2 L146.4 247.3 L145.0 247.8" fill="none" stroke="#2c4a82" stroke-width="0.6545" stroke-linecap="round" stroke-linejoin="round" opacity="0.45"/><path d="M149.6 243.8 L157.5 242.6" fill="none" stroke="#2c4a82" stroke-width="0.85" stroke-linecap="round" stroke-linejoin="round" opacity="1"/><path d="M111.5 276.2 L110.4 275.3 L109.7 274.1 L109.7 272.6 L110.2 271.3 L111.3 270.4 L112.7 270.0 L114.1 270.3 L115.2 271.1 L115.9 272.4 L115.9 273.8 L115.4 275.1 L114.3 276.1 L112.9 276.4 L111.5 276.2" fill="none" stroke="#2c4a82" stroke-width="1.19" stroke-linecap="round" stroke-linejoin="round" opacity="1"/><path d="M111.5 276.2 L110.4 275.3 L109.7 274.1 L109.7 272.6 L110.2 271.3 L111.3 270.4 L112.7 270.0 L114.1 270.3 L115.2 271.1 L115.9 272.4 L115.9 273.8 L115.4 275.1 L114.3 276.1 L112.9 276.4 L111.5 276.2" fill="none" stroke="#2c4a82" stroke-width="0.6545" stroke-linecap="round" stroke-linejoin="round" opacity="0.45"/><path d="M111.6 278.1 L109.6 285.8" fill="none" stroke="#2c4a82" stroke-width="0.85" stroke-linecap="round" stroke-linejoin="round" opacity="1"/><path d="M119.4 230.4 L118.0 230.4 L116.7 229.8 L115.8 228.8 L115.5 227.4 L115.7 226.0 L116.6 224.8 L117.9 224.2 L119.3 224.2 L120.6 224.8 L121.5 225.9 L121.9 227.2 L121.6 228.6 L120.7 229.8 L119.4 230.4" fill="none" stroke="#2c4a82" stroke-width="1.19" stroke-linecap="round" stroke-linejoin="round" opacity="1"/><path d="M116.9 232.0 L114.0 239.4" fill="none" stroke="#2c4a82" stroke-width="0.85" stroke-linecap="round" stroke-linejoin="round" opacity="1"/><path d="M255.0 160.0 L254.6 169.1 L255.2 178.2 L254.8 187.3 L255.1 196.4 L254.5 205.5 L255.0 214.5 L255.3 223.6 L255.3 232.7 L254.9 241.8 L255.3 250.9 L255.0 260.0" fill="none" stroke="#2c4a82" stroke-width="1.7" stroke-linecap="round" stroke-linejoin="round" opacity="1"/><path d="M265.0 160.0 L264.6 169.1 L265.1 178.2 L265.3 187.3 L264.5 196.4 L265.0 205.5 L265.4 214.5 L265.5 223.6 L265.4 232.7 L264.9 241.8 L264.7 250.9 L265.0 260.0" fill="none" stroke="#2c4a82" stroke-width="1.7" stroke-linecap="round" stroke-linejoin="round" opacity="1"/><path d="M265.0 160.0 L265.9 169.1 L265.2 178.2 L264.0 187.3 L264.9 196.4 L264.1 205.5 L264.3 214.5 L266.0 223.6 L264.6 232.7 L264.6 241.8 L264.9 250.9 L265.0 260.0" fill="none" stroke="#2c4a82" stroke-width="0.935" stroke-linecap="round" stroke-linejoin="round" opacity="0.45"/><path d="M255.0 160.0 L255.0 159.7 L255.1 159.4 L255.1 159.1 L255.2 158.8 L255.4 158.5 L255.5 158.2 L255.7 157.9 L256.0 157.6 L256.2 157.4 L256.5 157.2 L256.8 157.0 L257.1 156.8 L257.4 156.6 L257.7 156.4 L258.1 156.3 L258.5 156.2 L258.8 156.1 L259.2 156.0 L259.6 156.0 L260.0 156.0 L260.4 156.0 L260.8 156.0 L261.2 156.1 L261.5 156.2 L261.9 156.3 L262.3 156.4 L262.6 156.6 L262.9 156.8 L263.2 157.0 L263.5 157.2 L263.8 157.4 L264.0 157.6 L264.3 157.9 L264.5 158.2 L264.6 158.5 L264.8 158.8 L264.9 159.1 L264.9 159.4 L265.0 159.7 L265.0 160.0" fill="none" stroke="#2c4a82" stroke-width="1.7" stroke-linecap="round" stroke-linejoin="round" opacity="1"/><path d="M255.0 160.0 L255.0 159.7 L255.1 159.4 L255.1 159.1 L255.2 158.8 L255.4 158.5 L255.5 158.2 L255.7 157.9 L256.0 157.6 L256.2 157.4 L256.5 157.2 L256.8 157.0 L257.1 156.8 L257.4 156.6 L257.7 156.4 L258.1 156.3 L258.5 156.2 L258.8 156.1 L259.2 156.0 L259.6 156.0 L260.0 156.0 L260.4 156.0 L260.8 156.0 L261.2 156.1 L261.5 156.2 L261.9 156.3 L262.3 156.4 L262.6 156.6 L262.9 156.8 L263.2 157.0 L263.5 157.2 L263.8 157.4 L264.0 157.6 L264.3 157.9 L264.5 158.2 L264.6 158.5 L264.8 158.8 L264.9 159.1 L264.9 159.4 L265.0 159.7 L265.0 160.0" fill="none" stroke="#2c4a82" stroke-width="0.935" stroke-linecap="round" stroke-linejoin="round" opacity="0.45"/><path d="M253.0 261.5 L257.4 259.3 L262.3 259.2 L266.7 261.3 L269.8 265.1 L271.0 269.8 L270.0 274.6 L267.0 278.5 L262.6 280.7 L257.7 280.8 L253.3 278.7 L250.2 274.9 L249.0 270.2 L250.0 265.4 L253.0 261.5" fill="none" stroke="#2c4a82" stroke-width="1.7" stroke-linecap="round" stroke-linejoin="round" opacity="1"/><path d="M253.0 261.5 L257.4 259.3 L262.3 259.2 L266.7 261.3 L269.8 265.1 L271.0 269.8 L270.0 274.6 L267.0 278.5 L262.6 280.7 L257.7 280.8 L253.3 278.7 L250.2 274.9 L249.0 270.2 L250.0 265.4 L253.0 261.5" fill="none" stroke="#2c4a82" stroke-width="0.935" stroke-linecap="round" stroke-linejoin="round" opacity="0.45"/><path d="M260.0 260.0 L259.9 250.0 L259.9 240.0 L260.5 230.0 L260.4 220.0 L260.0 210.0" fill="none" stroke="#2c4a82" stroke-width="3.74" stroke-linecap="round" stroke-linejoin="round" opacity="1"/><path d="M266.0 170.0 L271.0 170.0" fill="none" stroke="#2c4a82" stroke-width="1.02" stroke-linecap="round" stroke-linejoin="round" opacity="1"/><path d="M266.0 180.0 L271.0 180.0" fill="none" stroke="#2c4a82" stroke-width="1.02" stroke-linecap="round" stroke-linejoin="round" opacity="1"/><path d="M266.0 190.0 L271.0 190.0" fill="none" stroke="#2c4a82" stroke-width="1.02" stroke-linecap="round" stroke-linejoin="round" opacity="1"/><path d="M266.0 200.0 L271.0 200.0" fill="none" stroke="#2c4a82" stroke-width="1.02" stroke-linecap="round" stroke-linejoin="round" opacity="1"/><path d="M266.0 210.0 L271.0 210.0" fill="none" stroke="#2c4a82" stroke-width="1.02" stroke-linecap="round" stroke-linejoin="round" opacity="1"/><path d="M266.0 220.0 L271.0 220.0" fill="none" stroke="#2c4a82" stroke-width="1.02" stroke-linecap="round" stroke-linejoin="round" opacity="1"/><path d="M266.0 230.0 L271.0 230.0" fill="none" stroke="#2c4a82" stroke-width="1.02" stroke-linecap="round" stroke-linejoin="round" opacity="1"/><path d="M266.0 240.0 L271.0 240.0" fill="none" stroke="#2c4a82" stroke-width="1.02" stroke-linecap="round" stroke-linejoin="round" opacity="1"/><path d="M126 336 C122 316 136 310 140 294 C146 310 156 318 154 336 Z" fill="none" stroke="#2c4a82" stroke-width="1.7" stroke-linecap="round" stroke-linejoin="round" opacity="1"/><path d="M134 336 C132 324 140 320 140 312 C144 322 148 326 146 336 Z" fill="none" stroke="#2c4a82" stroke-width="1.19" stroke-linecap="round" stroke-linejoin="round" opacity="1"/><text x="210.0" y="360.0" font-family="Georgia,'Iowan Old Style','Times New Roman',serif" font-size="16" font-style="italic" font-weight="normal" fill="#2c4a82" text-anchor="middle" opacity="1">q → ΔU + w</text><path d="M330.0 330.0 L339.4 329.7 L348.8 330.0 L358.1 329.6 L367.5 330.5 L376.9 330.4 L386.2 329.8 L395.6 330.2 L405.0 330.1 L414.4 329.6 L423.8 330.3 L433.1 330.0 L442.5 330.3 L451.9 330.0 L461.2 329.5 L470.6 329.8 L480.0 330.0" fill="none" stroke="#2c4a82" stroke-width="1.7" stroke-linecap="round" stroke-linejoin="round" opacity="1"/><path d="M474.6 332.6 L480.0 330.0 L474.6 327.4" fill="none" stroke="#2c4a82" stroke-width="1.7" stroke-linecap="round" stroke-linejoin="round" opacity="1"/><path d="M330.0 330.0 L329.5 320.8 L330.5 311.7 L330.4 302.5 L330.4 293.3 L329.8 284.2 L329.5 275.0 L330.4 265.8 L330.5 256.7 L329.5 247.5 L330.0 238.3 L329.5 229.2 L330.0 220.0" fill="none" stroke="#2c4a82" stroke-width="1.7" stroke-linecap="round" stroke-linejoin="round" opacity="1"/><path d="M332.6 225.4 L330.0 220.0 L327.4 225.4" fill="none" stroke="#2c4a82" stroke-width="1.7" stroke-linecap="round" stroke-linejoin="round" opacity="1"/><text x="476.0" y="348.0" font-family="Georgia,'Iowan Old Style','Times New Roman',serif" font-size="13" font-style="italic" font-weight="normal" fill="#2c4a82" text-anchor="middle" opacity="1">T</text><text x="324.0" y="214.0" font-family="Georgia,'Iowan Old Style','Times New Roman',serif" font-size="13" font-style="italic" font-weight="normal" fill="#2c4a82" text-anchor="middle" opacity="1">P</text><path d="M338.0 322.0 L349.2 315.2 L360.0 308.0 L368.5 302.2 L376.4 295.7 L385.0 290.0" fill="none" stroke="#2c4a82" stroke-width="1.7" stroke-linecap="round" stroke-linejoin="round" opacity="1"/><path d="M385.0 290.0 L393.8 284.5 L402.4 278.8 L411.5 273.8 L420.0 268.0 L428.0 263.1 L435.8 258.1 L444.0 253.6 L452.1 249.0 L460.0 244.0" fill="none" stroke="#2c4a82" stroke-width="1.7" stroke-linecap="round" stroke-linejoin="round" opacity="1"/><path d="M385.0 290.0 L393.5 284.2 L403.0 279.8 L411.4 273.8 L420.0 268.0 L427.9 263.1 L436.0 258.4 L443.6 253.0 L451.7 248.3 L460.0 244.0" fill="none" stroke="#2c4a82" stroke-width="0.935" stroke-linecap="round" stroke-linejoin="round" opacity="0.45"/><path d="M385.0 290.0 L386.5 280.0 L388.4 270.0 L390.0 260.0 L391.0 249.3 L392.4 238.6 L394.0 228.0" fill="none" stroke="#2c4a82" stroke-width="1.7" stroke-linecap="round" stroke-linejoin="round" opacity="1"/><path d="M385.0 290.0 L386.9 280.0 L387.8 269.9 L390.0 260.0 L392.1 249.4 L393.4 238.8 L394.0 228.0" fill="none" stroke="#2c4a82" stroke-width="0.935" stroke-linecap="round" stroke-linejoin="round" opacity="0.45"/><circle cx="385.0" cy="290.0" r="2.6" fill="#2c4a82" opacity="1"/><circle cx="460.0" cy="244.0" r="2.6" fill="#2c4a82" opacity="1"/><text x="358.0" y="260.0" font-family="Georgia,'Iowan Old Style','Times New Roman',serif" font-size="11" font-style="italic" font-weight="normal" fill="#2c4a82" text-anchor="middle" opacity="1">sól.</text><text x="428.0" y="234.0" font-family="Georgia,'Iowan Old Style','Times New Roman',serif" font-size="11" font-style="italic" font-weight="normal" fill="#2c4a82" text-anchor="middle" opacity="1">líq.</text><text x="440.0" y="300.0" font-family="Georgia,'Iowan Old Style','Times New Roman',serif" font-size="11" font-style="italic" font-weight="normal" fill="#2c4a82" text-anchor="middle" opacity="1">gas</text></g></svg>