<svg xmlns="http://www.w3.org/2000/svg" viewBox="0 0 420 420" width="420" height="420" xmlns:c2pa="http://c2pa.org/manifest"><metadata><c2pa:manifest>AAAWgmp1bWIAAAAeanVtZGMycGEAEQAQgAAAqgA4m3EDYzJwYQAAABZcanVtYgAAAEdqdW1kYzJtYQARABCAAACqADibcQN1cm46YzJwYTo5NGRhNzE3Zi1mNjAwLTRkYTktYTViNy0xYWI1MThkNDA2M2IAAAADl2p1bWIAAAApanVtZGMyYXMAEQAQgAAAqgA4m3EDYzJwYS5hc3NlcnRpb25zAAAAALxqdW1iAAAARGp1bWRjYm9yABEAEIAAAKoAOJtxE2MycGEuaW5ncmVkaWVudC52MwAAAAAYYzJzaIMtCEVKt299LF5ZeGnL1m8AAABwY2JvcqNpZGM6Zm9ybWF0bWltYWdlL3N2Zyt4bWxqaW5zdGFuY2VJRHgseG1wOmlpZDoxZjFkM2JjZi1mNTgzLTRlMWItOWU0ZC01MWY1ZjhhNzk4MDJscmVsYXRpb25zaGlwaHBhcmVudE9mAAAB4mp1bWIAAABBanVtZGNib3IAEQAQgAAAqgA4m3ETYzJwYS5hY3Rpb25zLnYyAAAAABhjMnNoUj8nEjEnUv8jMM++yzdfeQAAAZljYm9yomdhY3Rpb25zgqJmYWN0aW9ua2MycGEub3BlbmVkanBhcmFtZXRlcnOha2luZ3JlZGllbnRzgaJjdXJseC1zZWxmI2p1bWJmPWMycGEuYXNzZXJ0aW9ucy9jMnBhLmluZ3JlZGllbnQudjNkaGFzaFggpWc67wBGKOikA4CVJkUHcFYA1SbQrS51L161rcy9sZukZmFjdGlvbngdY29tLmFudGhyb3BpYy5jbGF1ZGUucHJvdmlkZWRqcGFyYW1ldGVyc6F4H2NvbS5hbnRocm9waWMub3JpZ2luLWNvbmZpZGVuY2VndW5rbm93bmtkZXNjcmlwdGlvbnhmQ2xhdWRlIHByb3ZpZGVkIHRoaXMgZmlsZSBhdCB0aGUgcmVxdWVzdCBvZiBhIHVzZXIgYW5kIG1heSBoYXZlIGNyZWF0ZWQgb3IgbW9kaWZpZWQgdGhlIGZpbGUgY29udGVudHMubXNvZnR3YXJlQWdlbnShZG5hbWVmQ2xhdWRlcmFsbEFjdGlvbnNJbmNsdWRlZPUAAADIanVtYgAAAEBqdW1kY2JvcgARABCAAACqADibcRNjMnBhLmhhc2guZGF0YQAAAAAYYzJzaDDm8fsJS3MOHAzhHVNWbeUAAACAY2JvcqVjYWxnZnNoYTI1NmNwYWRNAAAAAAAAAAAAAAAAAGRoYXNoWCANVgS0RNR2xi2NVUCJhPtZzmvOv+hGjUM1H4S1gSk3v2RuYW1lbmp1bWJmIG1hbmlmZXN0amV4Y2x1c2lvbnOBomVzdGFydBiWZmxlbmd0aBkeBAAAAj5qdW1iAAAAJ2p1bWRjMmNsABEAEIAAAKoAOJtxA2MycGEuY2xhaW0udjIAAAACD2Nib3KlY2FsZ2ZzaGEyNTZpc2lnbmF0dXJleE1zZWxmI2p1bWJmPS9jMnBhL3VybjpjMnBhOjk0ZGE3MTdmLWY2MDAtNGRhOS1hNWI3LTFhYjUxOGQ0MDYzYi9jMnBhLnNpZ25hdHVyZWppbnN0YW5jZUlEeCx4bXA6aWlkOjhkYTRjMTlhLWM1MWYtNGFkMy1hN2VhLTY4YTRlYWE5ODQxZHJjcmVhdGVkX2Fzc2VydGlvbnODomN1cmx4LXNlbGYjanVtYmY9YzJwYS5hc3NlcnRpb25zL2MycGEuaW5ncmVkaWVudC52M2RoYXNoWCClZzrvAEYo6KQDgJUmRQdwVgDVJtCtLnUvXrWtzL2xm6JjdXJseCpzZWxmI2p1bWJmPWMycGEuYXNzZXJ0aW9ucy9jMnBhLmFjdGlvbnMudjJkaGFzaFggZyEJQ2xC+nzHbNvaZt2DZN03mZJbz2wJvgDIkMG+eduiY3VybHgpc2VsZiNqdW1iZj1jMnBhLmFzc2VydGlvbnMvYzJwYS5oYXNoLmRhdGFkaGFzaFggq8t6xoeTJAro4z2DVEEHYblKMTPKBWYvernxJL+l3St0Y2xhaW1fZ2VuZXJhdG9yX2luZm+jZG5hbWVvQW50aHJvcGljIEZpbGVzZ3ZlcnNpb25lMS4wLjBrc3BlY1ZlcnNpb25lMi40LjAAABA4anVtYgAAAChqdW1kYzJjcwARABCAAACqADibcQNjMnBhLnNpZ25hdHVyZQAAABAIY2JvctKEWQISogEmGCFZAgowggIGMIIBjaADAgECAhRA5aAK7sI50L64g/oGQgU9Z1UTADAKBggqhkjOPQQDAzBJMRcwFQYDVQQKEw5BbnRocm9waWMsIFBCQzEuMCwGA1UEAxMlQW50aHJvcGljIENvbnRlbnQgQ3JlZGVudGlhbHMgUm9vdCBDQTAeFw0yNjA4MDcxODQzNTZaFw0yODA4MDYxOTQzNTZaMEQxFzAVBgNVBAoTDkFudGhyb3BpYywgUEJDMSkwJwYDVQQDEyBBbnRocm9waWMgQ2xhdWRlIENvbnRlbnQgU2lnbmluZzBZMBMGByqGSM49AgEGCCqGSM49AwEHA0IABJh6CmvLUBgFFNU0vUKlOVtE6djd17L5SuwX0LemFisBM3dkd/3cyjxFA3Qo5S46fX0/ihY0VZ7mfb9KF703t5OjWDBWMA4GA1UdDwEB/wQEAwIHgDAVBgNVHSUEDjAMBgorBgEEAYPoXgIBMAwGA1UdEwEB/wQCMAAwHwYDVR0jBBgwFoAUzlHiBIFOZFsj+OPEz5o+nMHXXMIwCgYIKoZIzj0EAwMDZwAwZAIwMXMdFJ4BetLLVY7ORuE9noqbbAZOZn/aArXyTwFAZfKrPzxF2vPoJNf1+UCdg1XGAjBwX1zd9WGqYkqmL5SFqw1QySjr1zJfpJM9+1rdDwSPLMOPOjKuiXjoU/pUUeG9RwmhY3BhZFkNngAAAAAAAAAAAAAAAAAAAAAAAAAAAAAAAAAAAAAAAAAAAAAAAAAAAAAAAAAAAAAAAAAAAAAAAAAAAAAAAAAAAAAAAAAAAAAAAAAAAAAAAAAAAAAAAAAAAAAAAAAAAAAAAAAAAAAAAAAAAAAAAAAAAAAAAAAAAAAAAAAAAAAAAAAAAAAAAAAAAAAAAAAAAAAAAAAAAAAAAAAAAAAAAAAAAAAAAAAAAAAAAAAAAAAAAAAAAAAAAAAAAAAAAAAAAAAAAAAAAAAAAAAAAAAAAAAAAAAAAAAAAAAAAAAAAAAAAAAAAAAAAAAAAAAAAAAAAAAAAAAAAAAAAAAAAAAAAAAAAAAAAAAAAAAAAAAAAAAAAAAAAAAAAAAAAAAAAAAAAAAAAAAAAAAAAAAAAAAAAAAAAAAAAAAAAAAAAAAAAAAAAAAAAAAAAAAAAAAAAAAAAAAAAAAAAAAAAAAAAAAAAAAAAAAAAAAAAAAAAAAAAAAAAAAAAAAAAAAAAAAAAAAAAAAAAAAAAAAAAAAAAAAAAAAAAAAAAAAAAAAAAAAAAAAAAAAAAAAAAAAAAAAAAAAAAAAAAAAAAAAAAAAAAAAAAAAAAAAAAAAAAAAAAAAAAAAAAAAAAAAAAAAAAAAAAAAAAAAAAAAAAAAAAAAAAAAAAAAAAAAAAAAAAAAAAAAAAAAAAAAAAAAAAAAAAAAAAAAAAAAAAAAAAAAAAAAAAAAAAAAAAAAAAAAAAAAAAAAAAAAAAAAAAAAAAAAAAAAAAAAAAAAAAAAAAAAAAAAAAAAAAAAAAAAAAAAAAAAAAAAAAAAAAAAAAAAAAAAAAAAAAAAAAAAAAAAAAAAAAAAAAAAAAAAAAAAAAAAAAAAAAAAAAAAAAAAAAAAAAAAAAAAAAAAAAAAAAAAAAAAAAAAAAAAAAAAAAAAAAAAAAAAAAAAAAAAAAAAAAAAAAAAAAAAAAAAAAAAAAAAAAAAAAAAAAAAAAAAAAAAAAAAAAAAAAAAAAAAAAAAAAAAAAAAAAAAAAAAAAAAAAAAAAAAAAAAAAAAAAAAAAAAAAAAAAAAAAAAAAAAAAAAAAAAAAAAAAAAAAAAAAAAAAAAAAAAAAAAAAAAAAAAAAAAAAAAAAAAAAAAAAAAAAAAAAAAAAAAAAAAAAAAAAAAAAAAAAAAAAAAAAAAAAAAAAAAAAAAAAAAAAAAAAAAAAAAAAAAAAAAAAAAAAAAAAAAAAAAAAAAAAAAAAAAAAAAAAAAAAAAAAAAAAAAAAAAAAAAAAAAAAAAAAAAAAAAAAAAAAAAAAAAAAAAAAAAAAAAAAAAAAAAAAAAAAAAAAAAAAAAAAAAAAAAAAAAAAAAAAAAAAAAAAAAAAAAAAAAAAAAAAAAAAAAAAAAAAAAAAAAAAAAAAAAAAAAAAAAAAAAAAAAAAAAAAAAAAAAAAAAAAAAAAAAAAAAAAAAAAAAAAAAAAAAAAAAAAAAAAAAAAAAAAAAAAAAAAAAAAAAAAAAAAAAAAAAAAAAAAAAAAAAAAAAAAAAAAAAAAAAAAAAAAAAAAAAAAAAAAAAAAAAAAAAAAAAAAAAAAAAAAAAAAAAAAAAAAAAAAAAAAAAAAAAAAAAAAAAAAAAAAAAAAAAAAAAAAAAAAAAAAAAAAAAAAAAAAAAAAAAAAAAAAAAAAAAAAAAAAAAAAAAAAAAAAAAAAAAAAAAAAAAAAAAAAAAAAAAAAAAAAAAAAAAAAAAAAAAAAAAAAAAAAAAAAAAAAAAAAAAAAAAAAAAAAAAAAAAAAAAAAAAAAAAAAAAAAAAAAAAAAAAAAAAAAAAAAAAAAAAAAAAAAAAAAAAAAAAAAAAAAAAAAAAAAAAAAAAAAAAAAAAAAAAAAAAAAAAAAAAAAAAAAAAAAAAAAAAAAAAAAAAAAAAAAAAAAAAAAAAAAAAAAAAAAAAAAAAAAAAAAAAAAAAAAAAAAAAAAAAAAAAAAAAAAAAAAAAAAAAAAAAAAAAAAAAAAAAAAAAAAAAAAAAAAAAAAAAAAAAAAAAAAAAAAAAAAAAAAAAAAAAAAAAAAAAAAAAAAAAAAAAAAAAAAAAAAAAAAAAAAAAAAAAAAAAAAAAAAAAAAAAAAAAAAAAAAAAAAAAAAAAAAAAAAAAAAAAAAAAAAAAAAAAAAAAAAAAAAAAAAAAAAAAAAAAAAAAAAAAAAAAAAAAAAAAAAAAAAAAAAAAAAAAAAAAAAAAAAAAAAAAAAAAAAAAAAAAAAAAAAAAAAAAAAAAAAAAAAAAAAAAAAAAAAAAAAAAAAAAAAAAAAAAAAAAAAAAAAAAAAAAAAAAAAAAAAAAAAAAAAAAAAAAAAAAAAAAAAAAAAAAAAAAAAAAAAAAAAAAAAAAAAAAAAAAAAAAAAAAAAAAAAAAAAAAAAAAAAAAAAAAAAAAAAAAAAAAAAAAAAAAAAAAAAAAAAAAAAAAAAAAAAAAAAAAAAAAAAAAAAAAAAAAAAAAAAAAAAAAAAAAAAAAAAAAAAAAAAAAAAAAAAAAAAAAAAAAAAAAAAAAAAAAAAAAAAAAAAAAAAAAAAAAAAAAAAAAAAAAAAAAAAAAAAAAAAAAAAAAAAAAAAAAAAAAAAAAAAAAAAAAAAAAAAAAAAAAAAAAAAAAAAAAAAAAAAAAAAAAAAAAAAAAAAAAAAAAAAAAAAAAAAAAAAAAAAAAAAAAAAAAAAAAAAAAAAAAAAAAAAAAAAAAAAAAAAAAAAAAAAAAAAAAAAAAAAAAAAAAAAAAAAAAAAAAAAAAAAAAAAAAAAAAAAAAAAAAAAAAAAAAAAAAAAAAAAAAAAAAAAAAAAAAAAAAAAAAAAAAAAAAAAAAAAAAAAAAAAAAAAAAAAAAAAAAAAAAAAAAAAAAAAAAAAAAAAAAAAAAAAAAAAAAAAAAAAAAAAAAAAAAAAAAAAAAAAAAAAAAAAAAAAAAAAAAAAAAAAAAAAAAAAAAAAAAAAAAAAAAAAAAAAAAAAAAAAAAAAAAAAAAAAAAAAAAAAAAAAAAAAAAAAAAAAAAAAAAAAAAAAAAAAAAAAAAAAAAAAAAAAAAAAAAAAAAAAAAAAAAAAAAAAAAAAAAAAAAAAAAAAAAAAAAAAAAAAAAAAAAAAAAAAAAAAAAAAAAAAAAAAAAAAAAAAAAAAAAAAAAAAAAAAAAAAAAAAAAAAAAAAAAAAAAAAAAAAAAAAAAAAAAAAAAAAAAAAAAAAAAAAAAAAAAAAAAAAAAAAAAAAAAAAAAAAAAAAAAAAAAAAAAAAAAAAAAAAAAAAAAAAAAAAAAAAAAAAAAAAAAAAAAAAAAAAAAAAAAAAAAAAAAAAAAAAAAAAAAAAAAAAAAAAAAAAAAAAAAAAAAAAAAAAAAAAAAAAAAAAAAAAAAAAAAAAAAAAAAAAAAAAAAAAAAAAAAAAAAAAAAAAAAAAAAAAAAAAAAAAAAAAAAAAAAAAAAAAAAAAAAAAAAAAAAAAAAAAAAAAAAAAAAAAAAAAAAAAAAAAAAAAAAAAAAAAAAAAAAAAAAAAAAAAAAAAAAAAAAAAAAAAAAAAAAAAAAAAAAAAAAAAAAAAAAAAAAAAAAAAAAAAAAAAAAAAAAAAAAAAAAAAAAAAAAAAAAAAAAAAAAAAAAAAAAAAAAAAAAAAAAAAAAAAAAAAAAAAAAAAAAAAAAAAAAAAAAAAAAAAAAAAAAAAAAAAAAAAAAAAAAAAAAAAAAAAAAAAAAAAAAAAAAAAAAAAAAAAAAAAAAAAAAAAAAAAAAAAAAAAAAAAAAAAAAAAAAAAAAAAAAAAAAAAAAAAAAAAAAAAAAAAAAAAAAAAAAAAAAAAAAAAAAAAAAAAAAAAAAAAAAAAAAAAAAAAAAAAAAAAAAAAAAAAAAAAAAAAAAAAAAAAAAAAAAAAAAAAAAAAAAAAAAAAAAAAAAAAAAAAAAAAAAAAAAAAAAAAAAAAAAAAAAAAAAAAAAAAAAAAAAAAAAAAAAAAAAAAAAAAAAAAAAAAAAAAAAAAAAAAAAAAAAAAAAAAAAAAAAAAAAAAAAAAAAAAAAAAAAAAAAAAAAAAAAAAAAAAAAAAAAAAAAAAAAAAAAAAAAAAAAAAAAAAAAAAAAAAAAAAAAAAAAAAAAAAAAAAAAAAAAAAAAAAAAAAAAAAAAAAAAAAAAAAAAAAAAAAAAAAAAAAAAAAAAAAAAAAAAAAAAAAAAAAAAAAAAAAAAAAAAAAAAAAAAAAAAAAAAAAAAAAAAAAAAAAAAAAAAAAAAAAAAAAAAAAAAAAAAAAAAAAAAAAAAAAAAAAAAAAAAAAAAAAAAAAAAAAAAAAAAAAAAAAAAAAAAAAAAAAAAAAAAAAAAAAAAAAAAAAAAAAAAAAAAAAAAAAAAAAAAAAAAAAAAAAAAAAAAAAAAAAAAAAAAAAAAAAAAAAAAAAAAAAAAAAAAAAAAAAAAAAAAAAAAAAAAAAAAAAAAAAAAAAAAAAAAAAAAAAAAAAAAAAAAAAAAAAAAAAAAAAAAAAAAAAAAAAAAAAAAAAAAAAAAAAAAAAAAAAAAAAAAAAAAAAAAAAAAAAAAAAAAAAAAAAAAAAAAAAAAAAAAAAAAAAAAAAAAAAAAAAAAAAAAAAAAAAAAAAAAAAAAAAAAAAAAAAAAAAAAAAAAAAAAAAAAAAAAAAAAAAAAAAAAAAAAAAAAAAAAAAAAAAAAAAAAAAAAAAAAAAAAAAPZYQHw4+1CeZRg2sNCESZskhjZkZstymv2hkEioGQI2vyXeCe665AJjtZfE+wu00OXPFs+17Vy81GPMmFDXjqH/nbk=</c2pa:manifest></metadata><g opacity="0.5"><path d="M60 330 C120 300 180 300 210 320 C240 300 300 300 360 330 L360 350 C300 322 240 322 210 342 C180 322 120 322 60 350 Z" fill="none" stroke="#5b4426" stroke-width="1.8" stroke-linecap="round" stroke-linejoin="round" opacity="1"/><path d="M210.0 320.0 L209.5 331.0 L210.0 342.0" fill="none" stroke="#5b4426" stroke-width="1.2" stroke-linecap="round" stroke-linejoin="round" opacity="1"/><path d="M210.0 320.0 L209.1 331.0 L210.0 342.0" fill="none" stroke="#5b4426" stroke-width="0.66" stroke-linecap="round" stroke-linejoin="round" opacity="0.45"/><path d="M80.0 336.0 L89.2 335.2 L98.3 335.0 L107.5 334.9 L116.7 333.8 L125.8 333.5 L135.0 332.6 L144.2 333.0 L153.4 332.5 L162.5 331.1 L171.6 330.6 L180.8 330.5 L190.0 330.0" fill="none" stroke="#5b4426" stroke-width="0.6" stroke-linecap="round" stroke-linejoin="round" opacity="1"/><path d="M102.0 333.0 L111.3 332.7 L120.7 332.6 L130.0 331.8 L139.3 331.8 L148.7 331.0 L158.0 330.7 L167.3 330.2 L176.7 330.4 L186.0 330.0" fill="none" stroke="#5b4426" stroke-width="0.6" stroke-linecap="round" stroke-linejoin="round" opacity="1"/><path d="M124.0 330.0 L133.7 330.1 L143.3 330.1 L153.0 330.5 L162.7 329.8 L172.3 329.8 L182.0 330.0" fill="none" stroke="#5b4426" stroke-width="0.6" stroke-linecap="round" stroke-linejoin="round" opacity="1"/><path d="M146.0 327.0 L156.7 328.0 L167.3 329.5 L178.0 330.0" fill="none" stroke="#5b4426" stroke-width="0.6" stroke-linecap="round" stroke-linejoin="round" opacity="1"/><path d="M168.0 324.0 L174.0 330.0" fill="none" stroke="#5b4426" stroke-width="0.6" stroke-linecap="round" stroke-linejoin="round" opacity="1"/><path d="M150.8 212.0 L140.5 218.2 L130.0 224.0" fill="none" stroke="#5b4426" stroke-width="1.8" stroke-linecap="round" stroke-linejoin="round" opacity="1"/><path d="M150.8 212.0 L140.5 218.1 L130.0 224.0" fill="none" stroke="#5b4426" stroke-width="0.9900000000000001" stroke-linecap="round" stroke-linejoin="round" opacity="0.45"/><path d="M130.0 224.0 L119.7 217.8 L109.2 212.0" fill="none" stroke="#5b4426" stroke-width="1.8" stroke-linecap="round" stroke-linejoin="round" opacity="1"/><path d="M130.0 224.0 L119.3 218.6 L109.2 212.0" fill="none" stroke="#5b4426" stroke-width="0.9900000000000001" stroke-linecap="round" stroke-linejoin="round" opacity="0.45"/><path d="M109.2 212.0 L109.5 200.0 L109.2 188.0" fill="none" stroke="#5b4426" stroke-width="1.8" stroke-linecap="round" stroke-linejoin="round" opacity="1"/><path d="M109.2 188.0 L119.7 182.1 L130.0 176.0" fill="none" stroke="#5b4426" stroke-width="1.8" stroke-linecap="round" stroke-linejoin="round" opacity="1"/><path d="M109.2 188.0 L119.4 181.6 L130.0 176.0" fill="none" stroke="#5b4426" stroke-width="0.9900000000000001" stroke-linecap="round" stroke-linejoin="round" opacity="0.45"/><path d="M130.0 176.0 L140.6 181.6 L150.8 188.0" fill="none" stroke="#5b4426" stroke-width="1.8" stroke-linecap="round" stroke-linejoin="round" opacity="1"/><path d="M130.0 176.0 L140.0 182.7 L150.8 188.0" fill="none" stroke="#5b4426" stroke-width="0.9900000000000001" stroke-linecap="round" stroke-linejoin="round" opacity="0.45"/><path d="M150.8 188.0 L150.2 200.0 L150.8 212.0" fill="none" stroke="#5b4426" stroke-width="1.8" stroke-linecap="round" stroke-linejoin="round" opacity="1"/><path d="M120.5 210.2 L117.0 205.1 L116.1 198.9 L118.0 193.0 L122.2 188.5 L128.0 186.2 L134.1 186.7 L139.5 189.8 L143.0 194.9 L143.9 201.1 L142.0 207.0 L137.8 211.5 L132.0 213.8 L125.9 213.3 L120.5 210.2" fill="none" stroke="#5b4426" stroke-width="1.62" stroke-linecap="round" stroke-linejoin="round" opacity="1"/><path d="M283.6 162.0 L283.2 174.0 L283.6 186.0 L279.0 195.7 L274.1 205.2 L269.0 214.7 L264.6 224.5 L259.6 234.0 L259.6 238.8 L269.7 238.8 L279.9 238.6 L290.0 239.2 L300.1 238.8 L310.3 238.4 L320.4 238.8 L320.4 234.0 L315.1 224.6 L310.9 214.7 L305.6 205.4 L301.4 195.5 L296.4 186.0 L296.1 174.0 L296.4 162.0" fill="none" stroke="#5b4426" stroke-width="1.8" stroke-linecap="round" stroke-linejoin="round" opacity="1"/><path d="M281.2 162.0 L298.8 162.0" fill="none" stroke="#5b4426" stroke-width="1.8" stroke-linecap="round" stroke-linejoin="round" opacity="1"/><path d="M281.2 162.0 L298.8 162.0" fill="none" stroke="#5b4426" stroke-width="0.9900000000000001" stroke-linecap="round" stroke-linejoin="round" opacity="0.45"/><path d="M268.4 216.4 L280.4 218.0 L293.2 215.6 L302.4 216.6 L311.6 217.2" fill="none" stroke="#5b4426" stroke-width="1.4400000000000002" stroke-linecap="round" stroke-linejoin="round" opacity="1"/><path d="M268.4 216.4 L280.4 218.0 L293.2 215.6 L302.4 216.2 L311.6 217.2" fill="none" stroke="#5b4426" stroke-width="0.7920000000000001" stroke-linecap="round" stroke-linejoin="round" opacity="0.45"/><path d="M280.9 225.9 L281.7 225.6 L282.6 225.7 L283.4 226.1 L283.9 226.9 L284.0 227.8 L283.7 228.6 L283.1 229.3 L282.3 229.6 L281.4 229.5 L280.6 229.1 L280.1 228.3 L280.0 227.4 L280.3 226.6 L280.9 225.9" fill="none" stroke="#5b4426" stroke-width="1.26" stroke-linecap="round" stroke-linejoin="round" opacity="1"/><path d="M280.9 225.9 L281.7 225.6 L282.6 225.7 L283.4 226.1 L283.9 226.9 L284.0 227.8 L283.7 228.6 L283.1 229.3 L282.3 229.6 L281.4 229.5 L280.6 229.1 L280.1 228.3 L280.0 227.4 L280.3 226.6 L280.9 225.9" fill="none" stroke="#5b4426" stroke-width="0.6930000000000001" stroke-linecap="round" stroke-linejoin="round" opacity="0.45"/><path d="M296.4 224.3 L296.3 225.0 L295.9 225.6 L295.2 225.9 L294.5 226.0 L293.9 225.7 L293.4 225.2 L293.2 224.5 L293.3 223.8 L293.7 223.2 L294.4 222.9 L295.1 222.8 L295.7 223.1 L296.2 223.6 L296.4 224.3" fill="none" stroke="#5b4426" stroke-width="1.26" stroke-linecap="round" stroke-linejoin="round" opacity="1"/><path d="M303.6 230.3 L303.5 231.4 L303.0 232.3 L302.2 233.0 L301.2 233.2 L300.1 232.9 L299.3 232.3 L298.8 231.3 L298.9 230.2 L299.4 229.3 L300.2 228.6 L301.2 228.4 L302.3 228.7 L303.1 229.3 L303.6 230.3" fill="none" stroke="#5b4426" stroke-width="1.26" stroke-linecap="round" stroke-linejoin="round" opacity="1"/><path d="M306.0 229.2 L312.4 229.2" fill="none" stroke="#5b4426" stroke-width="1.26" stroke-linecap="round" stroke-linejoin="round" opacity="1"/><path d="M306.0 222.0 L312.4 222.0" fill="none" stroke="#5b4426" stroke-width="1.26" stroke-linecap="round" stroke-linejoin="round" opacity="1"/><path d="M306.0 214.8 L312.4 214.8" fill="none" stroke="#5b4426" stroke-width="1.26" stroke-linecap="round" stroke-linejoin="round" opacity="1"/><text x="210.0" y="150.0" font-family="Georgia,'Iowan Old Style','Times New Roman',serif" font-size="20" font-style="italic" font-weight="normal" fill="#5b4426" text-anchor="middle" opacity="1">ΔG &lt; 0</text><path d="M140.0 262.0 L148.4 262.0 L151.2 259.0 L154.0 262.0 L159.6 262.0 L161.7 264.0 L163.2 252.5 L163.8 241.0 L164.4 250.3 L164.8 259.7 L165.9 269.0 L168.0 262.0 L176.4 262.0 L182.0 256.0 L187.6 262.0 L198.8 261.9 L210.0 262.0 L210.0 262.0 L218.4 262.0 L221.2 259.0 L224.0 262.0 L229.6 262.0 L231.7 264.0 L232.3 252.5 L233.8 241.0 L234.0 250.4 L234.7 259.7 L235.9 269.0 L238.0 262.0 L246.4 262.0 L252.0 256.0 L257.6 262.0 L268.8 261.7 L280.0 262.0" fill="none" stroke="#5b4426" stroke-width="1.8" stroke-linecap="round" stroke-linejoin="round" opacity="1"/><path d="M140.0 262.0 L148.4 262.0 L151.2 259.0 L154.0 262.0 L159.6 262.0 L161.7 264.0 L162.2 252.5 L163.8 241.0 L164.1 250.4 L165.9 259.6 L165.9 269.0 L168.0 262.0 L176.4 262.0 L182.0 256.0 L187.6 262.0 L198.8 262.6 L210.0 262.0 L210.0 262.0 L218.4 262.0 L221.2 259.0 L224.0 262.0 L229.6 262.0 L231.7 264.0 L231.8 252.4 L233.8 241.0 L234.7 250.3 L234.6 259.7 L235.9 269.0 L238.0 262.0 L246.4 262.0 L252.0 256.0 L257.6 262.0 L268.8 262.0 L280.0 262.0" fill="none" stroke="#5b4426" stroke-width="0.9900000000000001" stroke-linecap="round" stroke-linejoin="round" opacity="0.45"/><path d="M200 86 L203.0 93.0 L210 96 L203.0 99.0 L200 106 L197.0 99.0 L190 96 L197.0 93.0 Z" fill="none" stroke="#5b4426" stroke-width="1.2" stroke-linecap="round" stroke-linejoin="round" opacity="1"/><path d="M90 124 L91.8 128.2 L96 130 L91.8 131.8 L90 136 L88.2 131.8 L84 130 L88.2 128.2 Z" fill="none" stroke="#5b4426" stroke-width="1.2" stroke-linecap="round" stroke-linejoin="round" opacity="1"/><path d="M330 123 L332.1 127.9 L337 130 L332.1 132.1 L330 137 L327.9 132.1 L323 130 L327.9 127.9 Z" fill="none" stroke="#5b4426" stroke-width="1.2" stroke-linecap="round" stroke-linejoin="round" opacity="1"/><path d="M240 245 L241.5 248.5 L245 250 L241.5 251.5 L240 255 L238.5 251.5 L235 250 L238.5 248.5 Z" fill="none" stroke="#5b4426" stroke-width="1.2" stroke-linecap="round" stroke-linejoin="round" opacity="1"/></g></svg>